<?xml version="1.0" encoding="utf-8"?><!-- Uploaded to: SVG Repo, www.svgrepo.com, Generator: SVG Repo Mixer Tools -->
<svg version="1.1" id="Uploaded to svgrepo.com" xmlns="http://www.w3.org/2000/svg" xmlns:xlink="http://www.w3.org/1999/xlink" 
	 width="800px" height="800px" viewBox="0 0 32 32" xml:space="preserve">
<style type="text/css">
	.stone_een{fill:#0B1719;}
</style>
<path class="stone_een" d="M30.146,28.561l-1.586,1.586c-0.292,0.292-0.676,0.438-1.061,0.438s-0.768-0.146-1.061-0.438
	l-4.293-4.293l-2.232,2.232c-0.391,0.391-0.902,0.586-1.414,0.586s-1.024-0.195-1.414-0.586l-0.172-0.172
	c-0.781-0.781-0.781-2.047,0-2.828l8.172-8.172c0.391-0.391,0.902-0.586,1.414-0.586s1.024,0.195,1.414,0.586l0.172,0.172
	c0.781,0.781,0.781,2.047,0,2.828l-2.232,2.232l4.293,4.293C30.731,27.024,30.731,27.976,30.146,28.561z M22.341,18.244
	l-4.097,4.097L3.479,13.656C2.567,13.12,2,12.128,2,11.07V3c0-0.551,0.449-1,1-1h8.07c1.058,0,2.049,0.567,2.586,1.479
	L22.341,18.244z M19.354,19.354c0.195-0.195,0.195-0.512,0-0.707l-15.5-15.5c-0.195-0.195-0.512-0.195-0.707,0s-0.195,0.512,0,0.707
	l15.5,15.5C18.744,19.451,18.872,19.5,19,19.5S19.256,19.451,19.354,19.354z"/>
</svg>